<svg xmlns="http://www.w3.org/2000/svg" viewBox="0 0 800 360" role="img" aria-label="StrongTypes NuGet package layout">
  <style>
    .card-title { font: 600 13px ui-monospace, SFMono-Regular, 'SF Mono', Menlo, Consolas, monospace; fill: #111827; }
    .core-title { font: 700 15px ui-monospace, SFMono-Regular, 'SF Mono', Menlo, Consolas, monospace; fill: #111827; }
    .body       { font: 13px -apple-system, BlinkMacSystemFont, 'Segoe UI', Roboto, sans-serif; fill: #374151; }
    .body-mono  { font: 13px ui-monospace, SFMono-Regular, 'SF Mono', Menlo, Consolas, monospace; fill: #374151; }
    .sub-body   { font: 12px -apple-system, BlinkMacSystemFont, 'Segoe UI', Roboto, sans-serif; fill: #6B7280; }
    .sub-mono   { font: 12px ui-monospace, SFMono-Regular, 'SF Mono', Menlo, Consolas, monospace; fill: #6B7280; }
    .card-body  { font: 12px -apple-system, BlinkMacSystemFont, 'Segoe UI', Roboto, sans-serif; fill: #374151; }
    .card-mono  { font: 12px ui-monospace, SFMono-Regular, 'SF Mono', Menlo, Consolas, monospace; fill: #374151; }
    .bullet     { fill: #6366F1; }
    .sub-bullet { fill: none; stroke: #9CA3AF; stroke-width: 1.2; }
    .sm-bullet  { fill: #9CA3AF; }
  </style>

  <defs>
    <marker id="pl-arrow" markerWidth="10" markerHeight="10" refX="9" refY="3" orient="auto" markerUnits="strokeWidth">
      <path d="M 0,0 L 9,3 L 0,6 z" fill="#6B7280"/>
    </marker>
  </defs>

  <rect width="800" height="360" fill="#FFFFFF"/>
  <rect x="0.5" y="0.5" width="799" height="359" fill="none" stroke="#E5E7EB" rx="10"/>

  <!-- Core card (top-left) -->
  <rect x="15" y="15" width="395" height="190" rx="8" fill="#EEF2FF" stroke="#6366F1" stroke-width="1.5"/>
  <text class="core-title" x="33" y="42">Kalicz.StrongTypes</text>

  <!-- Bullet 1: Maybe + JSON Converter -->
  <circle class="bullet" cx="41" cy="70" r="2.5"/>
  <text class="body-mono" x="51" y="74">Maybe&lt;T&gt;<tspan class="body" fill="#374151"> + JSON converter</tspan></text>

  <!-- Bullet 2: Result -->
  <circle class="bullet" cx="41" cy="93" r="2.5"/>
  <text class="body-mono" x="51" y="97">Result&lt;T&gt; / Result&lt;T, TError&gt;</text>

  <!-- Bullet 3: Validated types -->
  <circle class="bullet" cx="41" cy="116" r="2.5"/>
  <text class="body" x="51" y="120">Validated types<tspan fill="#6B7280"> (with JSON converters)</tspan></text>

  <!-- Sub-bullets -->
  <circle class="sub-bullet" cx="70" cy="139" r="2.3"/>
  <text class="sub-mono" x="81" y="143">NonEmptyString</text>

  <circle class="sub-bullet" cx="70" cy="160" r="2.3"/>
  <text class="sub-mono" x="81" y="164">NonEmptyEnumerable&lt;T&gt;</text>

  <circle class="sub-bullet" cx="70" cy="181" r="2.3"/>
  <text class="sub-body" x="81" y="185">Numeric wrappers <tspan font-family="ui-monospace, Menlo, Consolas, monospace">(Positive&lt;T&gt;, …)</tspan></text>

  <!-- OpenApi.Microsoft card (top-right) -->
  <rect x="460" y="15" width="320" height="92" rx="8" fill="#FFFFFF" stroke="#E5E7EB" stroke-width="1.5"/>
  <text class="card-title" x="474" y="37">Kalicz.StrongTypes.OpenApi.Microsoft</text>
  <circle class="sm-bullet" cx="480" cy="62" r="2"/>
  <text class="card-body" x="488" y="66">Schema transformers</text>
  <circle class="sm-bullet" cx="480" cy="87" r="2"/>
  <text class="card-body" x="488" y="91">for <tspan font-family="ui-monospace, Menlo, Consolas, monospace">AddOpenApi()</tspan></text>

  <!-- OpenApi.Swashbuckle card (mid-right) -->
  <rect x="460" y="113" width="320" height="92" rx="8" fill="#FFFFFF" stroke="#E5E7EB" stroke-width="1.5"/>
  <text class="card-title" x="474" y="135">Kalicz.StrongTypes.OpenApi.Swashbuckle</text>
  <circle class="sm-bullet" cx="480" cy="160" r="2"/>
  <text class="card-body" x="488" y="164">Schema filters</text>
  <circle class="sm-bullet" cx="480" cy="185" r="2"/>
  <text class="card-body" x="488" y="189">for <tspan font-family="ui-monospace, Menlo, Consolas, monospace">AddSwaggerGen()</tspan></text>

  <!-- EfCore card (bottom-left, under Core) -->
  <rect x="15" y="235" width="215" height="110" rx="8" fill="#FFFFFF" stroke="#E5E7EB" stroke-width="1.5"/>
  <text class="card-title" x="29" y="259">Kalicz.StrongTypes.EfCore</text>
  <circle class="sm-bullet" cx="35" cy="284" r="2"/>
  <text class="card-body" x="43" y="288">EF Core value converters</text>
  <circle class="sm-bullet" cx="35" cy="306" r="2"/>
  <text class="card-body" x="43" y="310">DbContext extension</text>

  <!-- FsCheck card (bottom-right, under Core) -->
  <rect x="245" y="235" width="215" height="110" rx="8" fill="#FFFFFF" stroke="#E5E7EB" stroke-width="1.5"/>
  <text class="card-title" x="259" y="259">Kalicz.StrongTypes.FsCheck</text>
  <circle class="sm-bullet" cx="265" cy="282" r="2"/>
  <text class="card-body" x="273" y="286">Property-based (generative) testing</text>
  <circle class="sm-bullet" cx="265" cy="304" r="2"/>
  <text class="card-body" x="273" y="308">FsCheck Arbitrary&lt;T&gt;</text>
  <circle class="sm-bullet" cx="265" cy="326" r="2"/>
  <text class="card-body" x="273" y="330">generators</text>

  <!-- Arrows from satellite cards to core card -->
  <line x1="460" y1="61"  x2="412" y2="61"  stroke="#6B7280" stroke-width="1.5" marker-end="url(#pl-arrow)"/>
  <line x1="460" y1="159" x2="412" y2="159" stroke="#6B7280" stroke-width="1.5" marker-end="url(#pl-arrow)"/>
  <line x1="122" y1="235" x2="122" y2="210" stroke="#6B7280" stroke-width="1.5" marker-end="url(#pl-arrow)"/>
  <line x1="352" y1="235" x2="352" y2="210" stroke="#6B7280" stroke-width="1.5" marker-end="url(#pl-arrow)"/>
</svg>
