<svg xmlns="http://www.w3.org/2000/svg" viewBox="0 0 900 410" role="img" aria-label="TryCreate vs Create factory flows">
  <style>
    .col-header       { font: 600 14px ui-monospace, SFMono-Regular, 'SF Mono', Menlo, Consolas, monospace; }
    .node-label       { font: 600 13px -apple-system, BlinkMacSystemFont, 'Segoe UI', Roboto, sans-serif; }
    .mono             { font: 13px ui-monospace, SFMono-Regular, 'SF Mono', Menlo, Consolas, monospace; }
    .mono-outcome     { font: 700 14px ui-monospace, SFMono-Regular, 'SF Mono', Menlo, Consolas, monospace; }
    .branch-label     { font: 11px -apple-system, BlinkMacSystemFont, 'Segoe UI', Roboto, sans-serif; fill: #374151; }
    .methods-head     { font: 600 11px -apple-system, BlinkMacSystemFont, 'Segoe UI', Roboto, sans-serif; fill: #6B7280; letter-spacing: 0.06em; text-transform: uppercase; }
    .method-name      { font: 13px ui-monospace, SFMono-Regular, 'SF Mono', Menlo, Consolas, monospace; fill: #6B7280; }
    .bullet           { fill: #D1D5DB; }
  </style>

  <defs>
    <marker id="tc-arrow-gray" markerWidth="10" markerHeight="10" refX="9" refY="3" orient="auto" markerUnits="strokeWidth">
      <path d="M 0,0 L 9,3 L 0,6 z" fill="#9CA3AF"/>
    </marker>
    <marker id="tc-arrow-green" markerWidth="10" markerHeight="10" refX="9" refY="3" orient="auto" markerUnits="strokeWidth">
      <path d="M 0,0 L 9,3 L 0,6 z" fill="#10B981"/>
    </marker>
    <marker id="tc-arrow-red" markerWidth="10" markerHeight="10" refX="9" refY="3" orient="auto" markerUnits="strokeWidth">
      <path d="M 0,0 L 9,3 L 0,6 z" fill="#EF4444"/>
    </marker>
    <marker id="tc-arrow-indigo" markerWidth="10" markerHeight="10" refX="9" refY="3" orient="auto" markerUnits="strokeWidth">
      <path d="M 0,0 L 9,3 L 0,6 z" fill="#6366F1"/>
    </marker>
  </defs>

  <rect width="900" height="410" fill="#FFFFFF"/>
  <rect x="0.5" y="0.5" width="899" height="409" fill="none" stroke="#E5E7EB" rx="10"/>

  <!-- ============ LEFT COLUMN: TryCreate / As… ============ -->
  <g transform="translate(20, 0)">
    <!-- Column header bar -->
    <rect x="0" y="20" width="420" height="32" rx="6" fill="#F3F4F6" stroke="#D1D5DB" stroke-width="1.5"/>
    <text class="col-header" x="210" y="41" text-anchor="middle" fill="#374151">TryCreate / As…</text>

    <!-- Input pill -->
    <rect x="150" y="72" width="120" height="34" rx="17" fill="#F9FAFB" stroke="#9CA3AF" stroke-width="1.5"/>
    <text class="node-label" x="210" y="94" text-anchor="middle" fill="#111827">input</text>

    <!-- Arrow down to validate -->
    <line x1="210" y1="108" x2="210" y2="128" stroke="#6366F1" stroke-width="1.5" marker-end="url(#tc-arrow-indigo)"/>

    <!-- Validate box (decision) -->
    <rect x="150" y="130" width="120" height="38" rx="8" fill="#FFFFFF" stroke="#6366F1" stroke-width="1.5"/>
    <text class="node-label" x="210" y="154" text-anchor="middle" fill="#4338CA">valid?</text>

    <!-- Branch arrows -->
    <path d="M 190 168 C 170 185, 150 195, 130 208" fill="none" stroke="#10B981" stroke-width="1.5" marker-end="url(#tc-arrow-green)"/>
    <path d="M 230 168 C 250 185, 270 195, 290 208" fill="none" stroke="#9CA3AF" stroke-width="1.5" marker-end="url(#tc-arrow-gray)"/>

    <!-- Branch labels -->
    <text class="branch-label" x="148" y="185" text-anchor="middle" fill="#047857">yes</text>
    <text class="branch-label" x="272" y="185" text-anchor="middle" fill="#6B7280">no</text>

    <!-- Success outcome -->
    <rect x="70" y="210" width="120" height="40" rx="8" fill="#ECFDF5" stroke="#10B981" stroke-width="1.5"/>
    <text class="mono-outcome" x="130" y="236" text-anchor="middle" fill="#065F46">T</text>

    <!-- Failure outcome: null -->
    <rect x="230" y="210" width="120" height="40" rx="8" fill="#F3F4F6" stroke="#9CA3AF" stroke-width="1.5"/>
    <text class="mono-outcome" x="290" y="236" text-anchor="middle" fill="#374151">null</text>

    <!-- Divider -->
    <line x1="10" y1="285" x2="410" y2="285" stroke="#E5E7EB" stroke-width="1" stroke-dasharray="4 3"/>

    <!-- Methods list -->
    <text class="methods-head" x="20" y="310">Methods in this family</text>
    <g transform="translate(20, 330)">
      <circle class="bullet" cx="6" cy="6" r="2.5"/><text class="method-name" x="18" y="10">TryCreate / TryParse<tspan fill="#9CA3AF">  (on any validated type or enum)</tspan></text>
      <circle class="bullet" cx="6" cy="32" r="2.5"/><text class="method-name" x="18" y="36">AsNonEmpty / AsPositive / AsNegative / AsEnum&lt;T&gt; / …</text>
      <circle class="bullet" cx="6" cy="58" r="2.5"/><text class="method-name" x="18" y="62">AsInt / AsGuid / AsTimeSpan / …</text>
    </g>
  </g>

  <!-- ============ RIGHT COLUMN: Create / To… ============ -->
  <g transform="translate(460, 0)">
    <!-- Column header bar -->
    <rect x="0" y="20" width="420" height="32" rx="6" fill="#FEF2F2" stroke="#FCA5A5" stroke-width="1.5"/>
    <text class="col-header" x="210" y="41" text-anchor="middle" fill="#991B1B">Create / To…</text>

    <!-- Input pill -->
    <rect x="150" y="72" width="120" height="34" rx="17" fill="#F9FAFB" stroke="#9CA3AF" stroke-width="1.5"/>
    <text class="node-label" x="210" y="94" text-anchor="middle" fill="#111827">input</text>

    <!-- Arrow down to validate -->
    <line x1="210" y1="108" x2="210" y2="128" stroke="#6366F1" stroke-width="1.5" marker-end="url(#tc-arrow-indigo)"/>

    <!-- Validate box (decision) -->
    <rect x="150" y="130" width="120" height="38" rx="8" fill="#FFFFFF" stroke="#6366F1" stroke-width="1.5"/>
    <text class="node-label" x="210" y="154" text-anchor="middle" fill="#4338CA">valid?</text>

    <!-- Branch arrows -->
    <path d="M 190 168 C 170 185, 150 195, 130 208" fill="none" stroke="#10B981" stroke-width="1.5" marker-end="url(#tc-arrow-green)"/>
    <path d="M 230 168 C 250 185, 270 195, 290 208" fill="none" stroke="#EF4444" stroke-width="1.5" marker-end="url(#tc-arrow-red)"/>

    <!-- Branch labels -->
    <text class="branch-label" x="148" y="185" text-anchor="middle" fill="#047857">yes</text>
    <text class="branch-label" x="272" y="185" text-anchor="middle" fill="#B91C1C">no</text>

    <!-- Success outcome -->
    <rect x="70" y="210" width="120" height="40" rx="8" fill="#ECFDF5" stroke="#10B981" stroke-width="1.5"/>
    <text class="mono-outcome" x="130" y="236" text-anchor="middle" fill="#065F46">T</text>

    <!-- Failure outcome: throws -->
    <rect x="230" y="210" width="120" height="40" rx="8" fill="#FEF2F2" stroke="#EF4444" stroke-width="1.5"/>
    <text class="mono-outcome" x="290" y="236" text-anchor="middle" fill="#991B1B">throws</text>

    <!-- Divider -->
    <line x1="10" y1="285" x2="410" y2="285" stroke="#E5E7EB" stroke-width="1" stroke-dasharray="4 3"/>

    <!-- Methods list -->
    <text class="methods-head" x="20" y="310">Methods in this family</text>
    <g transform="translate(20, 330)">
      <circle class="bullet" cx="6" cy="6" r="2.5"/><text class="method-name" x="18" y="10">Create / Parse<tspan fill="#9CA3AF">  (on any validated type or enum)</tspan></text>
      <circle class="bullet" cx="6" cy="32" r="2.5"/><text class="method-name" x="18" y="36">ToNonEmpty / ToPositive / ToNegative / ToEnum&lt;T&gt; / …</text>
      <circle class="bullet" cx="6" cy="58" r="2.5"/><text class="method-name" x="18" y="62">ToInt / ToGuid / ToTimeSpan / …</text>
    </g>
  </g>
</svg>
